<?xml version="1.0" encoding="utf-8" ?>
<svg baseProfile="full" height="300mm" version="1.1" viewBox="0,0,200,300" width="200mm" xmlns="http://www.w3.org/2000/svg" xmlns:ev="http://www.w3.org/2001/xml-events" xmlns:xlink="http://www.w3.org/1999/xlink"><defs /><rect fill="#222222" height="300" width="200" x="0" y="0" /><text fill="#FFFFFF" style="font-size:12px; font-family:Arial; font-weight:bold;" x="10" y="20">Over 10km Runs</text><text fill="#FFFFFF" style="font-size:4px; font-family:Arial" x="10" y="280">ATHLETE</text><text fill="#FFFFFF" style="font-size:9px; font-family:Arial" x="10" y="290">pi-dal</text><text fill="#FFFFFF" style="font-size:4px; font-family:Arial" x="120" y="280">STATISTICS</text><text fill="#FFFFFF" style="font-size:3px; font-family:Arial" x="120" y="285">Number: 2</text><text fill="#FFFFFF" style="font-size:3px; font-family:Arial" x="120" y="290">Weekly: 2.0</text><text fill="#FFFFFF" style="font-size:3px; font-family:Arial" x="141" y="285">Total: 1.9 km</text><text fill="#FFFFFF" style="font-size:3px; font-family:Arial" x="141" y="290">Avg: 0.9 km</text><text fill="#FFFFFF" style="font-size:3px; font-family:Arial" x="167" y="285">Min: 0.5 km</text><text fill="#FFFFFF" style="font-size:3px; font-family:Arial" x="167" y="290">Max: 1.3 km</text><polyline fill="none" points="103.60234523378313,144.0 102.52164166420698,142.82183032436296 101.44093809463084,141.64366038050503 100.72046904824674,140.46549016889185 100.00000000186265,138.89459613757208 99.63976547680795,137.32370163034648 98.9192964322865,135.75280664628372 98.55906190723181,134.18191118584946 97.83859286084771,133.00373927829787 96.75788929127157,131.8255671034567 96.03742024488747,130.64739466039464 95.31695119664073,129.469221948646 94.23624762706459,128.2910489696078 93.51577858068049,127.11287572281435 92.43507501110435,125.9347022078 91.71460596472025,125.14925305033103 90.99413691833615,123.97107908921316 89.91343334876001,122.7929048598744 89.19296430051327,122.00745522463694 88.47249525599182,121.22200547158718 87.75202620960772,120.04383061779663 87.39179168455303,118.86565549625084 87.03155716136098,118.0802052654326 87.03155716136098,116.50930444896221 87.03155716136098,115.33112852321938 87.03155716136098,114.15295233065262 87.39179168455303,112.582050322555 87.39179168455303,111.40387350460514 87.75202620960772,110.22569641843438 87.75202620960772,109.04751906590536 87.75202620960772,107.86934144375846 87.75202620960772,106.69116355432197 87.75202620960772,105.90571147901937 88.11226073279977,105.12025928497314 88.83272977918386,104.33480697171763 89.55319882556796,103.54935453878716 90.6339023951441,102.76390198851004 91.71460596472025,101.97844931762666 92.7953095342964,101.58572293817997 93.87601310573518,100.80027008848265 94.95671667531133,100.01481712097302 96.03742024488747,99.62209059204906 97.11812381632626,98.83663744619116 98.19882738403976,98.4439108283259 99.2795309536159,97.65845750272274 100.3602345250547,96.87300405837595 101.08070357143879,96.08755049528554 102.16140714101493,95.30209681298584 103.24211071059108,94.90936992736533 103.96257975697517,94.1239160662517 105.04328332655132,93.33846208639443 105.76375237293541,92.55300798779353 106.84445594251156,91.76755376998335 107.5649249907583,90.98209943249822 108.6456285584718,90.19664497673512 109.72633212991059,89.41119040129706 110.44680117629468,88.6257357080467 111.16727022267878,87.84028089465573 111.52750474587083,86.66209845151752 111.16727022267878,85.87664334056899 111.16727022267878,84.69846045132726 110.44680117629468,83.52027729339898 109.72633212991059,82.34209386818111 109.72633212991059,81.163910175208 109.72633212991059,80.37845423212275 110.08656665310264,79.2002700921148 110.80703569948673,78.41481384960935 111.52750474587083,77.62935748882592 112.60820831730962,76.84390100929886 113.32867736369371,76.05844441056252 114.40938093140721,75.27298769261688 115.490084502846,74.4875308549963 116.2105535492301,73.70207389863208 117.29125711880624,72.9166168239899 118.01172616519034,72.13115963013843 118.73219521343708,71.34570231707767 119.45266425982118,70.5602448838763 119.45266425982118,69.3820585119538 119.45266425982118,68.59660078259185 119.45266425982118,67.4184139650315 118.73219521343708,66.632955936715 118.01172616519034,65.84749779012054 116.9310225956142,65.45476867258549 115.85031902603805,65.45476867258549 114.76961545459926,65.06203952478245 113.68891188688576,65.45476867258549 112.60820831730962,65.45476867258549 111.52750474587083,65.45476867258549 110.44680117629468,65.45476867258549 109.72633212991059,65.06203952478245 108.6456285584718,64.66931034764275 107.92515951395035,64.2765811397694 106.84445594251156,63.491122636478394 106.12398689799011,62.70566401304677 105.40351784974337,61.92020527133718 104.68304880335927,61.1347464104183 104.32281428016722,60.34928743029013 103.60234523378313,59.563828331884 102.88187618739903,58.77836911287159 102.16140714101493,57.99290977558121 101.80117261782289,57.20745032047853 101.44093809463084,56.02926091244444 101.08070357143879,54.851071236655116 100.72046904824674,54.065611304249614 100.72046904824674,52.8874211832881 100.72046904824674,51.70923079364002 100.72046904824674,50.531040135771036 100.72046904824674,49.35284920968115 100.72046904824674,48.17465801630169 100.3602345250547,46.99646655563265 99.63976547680795,46.211005432065576 98.9192964322865,45.03281352529302 98.19882738403976,44.247352103702724 97.47835833765566,43.46189056430012 96.39765476807952,43.06915974942967 95.31695119664073,42.676428905688226 94.59648215211928,42.676428905688226 93.51577858068049,43.06915974942967 92.43507501110435,43.46189056430012 91.71460596472025,43.854621349368244 90.99413691833615,44.640082829166204 90.27366787195206,45.81827482627705 89.91343334876001,46.603736008983105 89.55319882556796,47.781927559990436 89.19296430051327,48.9601188423112 89.19296430051327,49.7455795481801 88.83272977918386,50.92377038439736 88.47249525599182,51.70923079364002 87.75202620960772,52.8874211832881 87.39179168455303,53.67288129404187 86.67132264003158,54.45834128605202 85.95085359178483,55.243801158387214 85.23038454540074,55.63653105078265 84.50991549901664,55.63653105078265 83.78944645263255,55.63653105078265 83.0689774043858,55.243801158387214 82.34850835986435,54.45834128605202 81.62803931348026,54.065611304249614 80.54733574204147,53.280151253100485 79.82686669565737,52.8874211832881 78.74616312608123,52.10196095239371 78.02569407969713,51.31650060322136 76.94499051012099,50.531040135771036 76.22452146373689,49.7455795481801 75.8642869386822,48.9601188423112 75.8642869386822,48.17465801630169 76.22452146373689,47.781927559990436 76.94499051012099,46.99646655563265 78.02569407969713,46.211005432065576 78.74616312608123,45.425544190220535 79.82686669565737,44.640082829166204 80.54733574204147,44.247352103702724 81.62803931348026,43.46189056430012 82.34850835986435,42.676428905688226 83.4292119294405,41.890967128332704 84.50991549901664,40.71277423808351 85.23038454540074,40.32004321552813 86.31108811497688,39.53458108007908 87.03155716136098,38.74911882635206 87.75202620960772,37.96365645341575 88.83272977918386,37.17819396127015 89.91343334876001,36.78546267002821 90.6339023951441,36.392731349915266 91.71460596472025,36.0 92.7953095342964,36.0 93.87601310573518,36.392731349915266 94.59648215211928,37.17819396127015 95.67718572169542,37.96365645341575 96.75788929127157,38.35638765525073 97.83859286084771,39.14184996765107 98.9192964322865,39.92731216317043 100.3602345250547,40.71277423808351 101.44093809463084,41.49823619425297 102.52164166420698,42.28369803261012 103.60234523378313,42.676428905688226 104.68304880335927,43.46189056430012 106.12398689799011,44.247352103702724 107.20469046756625,44.640082829166204 108.2853940371424,45.425544190220535 109.36609760858119,46.211005432065576 110.80703569948673,46.603736008983105 111.88773926906288,47.38919707201421 112.96844283863902,48.17465801630169 114.04914641007781,48.56738844420761 115.12984997965395,49.35284920968115 116.2105535492301,50.13830985641107 117.65149164199829,50.92377038439736 118.73219521343708,51.70923079364002 119.81289878301322,52.494691082742065 120.89360235072672,53.280151253100485 121.61407139897346,54.065611304249614 122.33454044535756,54.851071236655116 123.05500949174166,56.02926091244444 123.4152440149337,57.20745032047853 123.4152440149337,58.38563946029171 123.7754785399884,59.563828331884 124.1357130613178,60.74201693572104 124.1357130613178,61.92020527133718 124.1357130613178,62.3129346575588 123.7754785399884,62.70566401304677 123.05500949174166,62.70566401304677 121.97430592216551,62.3129346575588 121.25383687578142,61.92020527133718 120.17313330620527,61.1347464104183 119.45266425982118,60.74201693572104 118.73219521343708,59.956557895522565 118.01172616519034,59.17109873704612 117.65149164199829,58.38563946029171 116.9310225956142,57.60018006246537 116.2105535492301,57.20745032047853 115.490084502846,56.42199074476957 114.40938093140721,56.02926091244444 113.68891188688576,55.63653105078265 112.60820831730962,55.63653105078265 111.52750474587083,55.63653105078265 110.44680117629468,55.63653105078265 109.72633212991059,55.63653105078265 108.6456285584718,56.02926091244444 107.5649249907583,56.81472054775804 106.84445594251156,57.20745032047853 106.12398689799011,57.99290977558121 105.40351784974337,58.77836911287159 105.04328332655132,59.563828331884 105.04328332655132,60.34928743029013 105.04328332655132,61.52747585531324 105.40351784974337,62.3129346575588 105.40351784974337,63.491122636478394 105.76375237293541,64.2765811397694 105.76375237293541,65.45476867258549 105.40351784974337,66.2402268787846 105.04328332655132,67.02568496530876 104.68304880335927,67.81114293355495 104.32281428016722,68.59660078259185 103.60234523378313,69.3820585119538 102.88187618739903,69.77478733286262 101.80117261782289,70.16751612396911 101.08070357143879,70.5602448838763 100.3602345250547,70.95297361537814 99.2795309536159,70.5602448838763 98.55906190723181,70.5602448838763 97.47835833765566,69.77478733286262 96.75788929127157,69.3820585119538 96.03742024488747,68.59660078259185 95.31695119664073,67.81114293355495 94.95671667531133,67.02568496530876 94.59648215211928,65.84749779012054 94.59648215211928,65.06203952478245 94.23624762706459,64.2765811397694 93.87601310573518,63.491122636478394 93.51577858068049,62.70566401304677 92.7953095342964,61.92020527133718 92.0748404879123,61.52747585531324 91.35437144339085,60.74201693572104 90.27366787195206,59.956557895522565 89.55319882556796,59.563828331884 88.83272977918386,58.77836911287159 87.75202620960772,57.99290977558121 87.39179168455303,57.20745032047853 87.03155716136098,56.42199074476957 87.03155716136098,55.63653105078265 87.03155716136098,54.851071236655116 87.75202620960772,53.67288129404187 88.47249525599182,52.8874211832881 89.19296430051327,52.10196095239371 89.55319882556796,50.92377038439736 89.91343334876001,49.7455795481801 90.27366787195206,48.9601188423112 90.6339023951441,47.781927559990436 90.99413691833615,46.603736008983105 91.71460596472025,45.81827482627705 92.43507501110435,45.03281352529302 93.15554405935109,44.247352103702724 94.23624762706459,43.854621349368244 95.31695119664073,43.854621349368244 96.03742024488747,43.854621349368244 97.11812381632626,44.247352103702724 97.83859286084771,45.03281352529302 98.55906190723181,45.81827482627705 99.2795309536159,46.603736008983105 99.63976547680795,47.781927559990436 100.00000000186265,48.56738844420761 100.00000000186265,49.7455795481801 100.3602345250547,50.92377038439736 100.3602345250547,52.10196095239371 100.3602345250547,53.280151253100485 100.72046904824674,54.45834128605202 100.72046904824674,55.63653105078265 101.08070357143879,56.42199074476957 101.44093809463084,57.60018006246537 101.80117261782289,58.38563946029171 101.80117261782289,59.17109873704612 101.44093809463084,59.956557895522565 101.08070357143879,60.34928743029013 100.3602345250547,60.34928743029013 99.2795309536159,60.74201693572104 98.55906190723181,61.1347464104183 97.47835833765566,61.52747585531324 96.75788929127157,62.3129346575588 96.03742024488747,63.09839333919808 95.31695119664073,63.8838519025594 94.95671667531133,65.06203952478245 94.59648215211928,65.84749779012054 94.23624762706459,67.02568496530876 93.51577858068049,68.20387187320739 93.15554405935109,68.98932966263965 92.7953095342964,70.16751612396911 92.0748404879123,70.95297361537814 91.35437144339085,72.13115963013843 90.6339023951441,72.9166168239899 89.91343334876001,73.70207389863208 89.55319882556796,74.88025928847492 88.83272977918386,75.66571606649086 88.11226073279977,76.45117272436619 87.75202620960772,77.23662926396355 87.39179168455303,78.02208568481728 87.03155716136098,78.80754198599607 87.03155716136098,79.98572621447966 87.39179168455303,80.77118221856654 87.39179168455303,81.55663810297847 87.75202620960772,82.34209386818111 87.39179168455303,83.12754951557145 86.67132264003158,83.52027729339898 85.95085359178483,84.30573276150972 85.23038454540074,84.69846045132726 84.1496809758246,85.48391574015841 83.78944645263255,86.26937091071159 83.4292119294405,87.05482596252114 83.4292119294405,87.84028089465573 83.4292119294405,88.6257357080467 83.78944645263255,89.80391770461574 84.1496809758246,90.58937221998349 84.1496809758246,91.37482661614195 84.50991549901664,92.55300798779353 84.50991549901664,93.33846208639443 84.87015002407134,94.51664301240817 85.23038454540074,95.30209681298584 85.23038454540074,96.08755049528554 85.23038454540074,97.26573079545051 85.23038454540074,98.05118418019265 85.59061907045543,98.83663744619116 85.59061907045543,100.01481712097302 85.59061907045543,100.80027008848265 85.59061907045543,101.97844931762666 85.59061907045543,102.76390198851004 85.59061907045543,103.94208077061921 85.95085359178483,104.72753314301372 86.31108811497688,105.90571147901937 87.03155716136098,106.69116355432197 87.39179168455303,107.47661550948396 87.75202620960772,108.65479322103783 88.11226073279977,109.44024487957358 88.47249525599182,110.61842214409262 88.11226073279977,111.40387350460514 88.11226073279977,112.582050322555 87.75202620960772,113.76022687321529 87.03155716136098,114.93840315612033 86.67132264003158,115.72385386191308 86.31108811497688,116.50930444896221 85.59061907045543,117.68748010601848 85.59061907045543,118.47293039551005 85.59061907045543,119.25838056625798 85.95085359178483,120.43655559839681 86.31108811497688,121.22200547158718 87.03155716136098,122.00745522463694 87.75202620960772,123.18562963232398 88.47249525599182,123.97107908921316 88.83272977918386,124.75652842596173 89.55319882556796,125.9347022078 90.27366787195206,126.72015124792233 90.99413691833615,127.50560016883537 91.71460596472025,127.89832458412275 92.43507501110435,128.68377332622185 92.7953095342964,129.469221948646 93.51577858068049,130.2546704527922 94.23624762706459,131.04011883726344 94.95671667531133,131.8255671034567 95.67718572169542,132.6110152504407 96.39765476807952,133.78918724646792 96.75788929127157,134.57463509589434 97.47835833765566,135.3600828256458 97.83859286084771,136.14553043665364 98.55906190723181,136.93097792891786 98.9192964322865,138.10914894379675 99.2795309536159,138.89459613757208 100.00000000186265,139.68004321400076 100.3602345250547,140.46549016889185 101.08070357143879,141.25093700690195 101.80117261782289,142.0363837252371 102.52164166420698,142.82183032436296 103.24211071059108,143.21455357968807 103.96257975697517,143.6072768047452 105.04328332655132,144.0 105.76375237293541,144.0 106.84445594251156,144.0 107.5649249907583,143.6072768047452 108.6456285584718,142.82183032436296 109.36609760858119,142.4291070397012" stroke="#4dd2ff" stroke-linecap="round" stroke-linejoin="round" stroke-width="0.5"><title>2024-02-08 1.3km</title><desc>6661707347313001340</desc></polyline><polyline fill="none" points="123.02325581386685,211.82552298530936 124.69767441600561,211.82552298530936 125.53488372266293,211.82552298530936 126.37209302559495,211.82552298530936 128.0465116277337,211.82552298530936 128.88372093439102,211.82552298530936 130.55813953652978,211.82552298530936 132.23255813866854,211.82552298530936 133.06976744160056,211.82552298530936 134.7441860511899,211.82552298530936 136.41860465705395,211.82552298530936 138.0930232591927,211.82552298530936 139.76744186133146,210.91279059834778 141.4418604709208,210.91279059834778 143.11627907305956,210.91279059834778 144.79069767519832,210.91279059834778 145.62790698185563,211.82552298530936 147.3023255839944,211.82552298530936 149.81395348906517,210.91279059834778 150.6511627919972,212.73825530521572 151.48837209492922,215.4764518486336 152.32558139786124,217.30191586352885 153.16279070079327,219.12737960088998 154.0,223.69103773776442 154.0,225.51650050841272 154.0,226.4292317898944 154.0,228.25469414517283 154.0,230.08015622291714 154.0,231.90561802498996 154.0,232.81834882311523 154.0,234.6438102107495 154.0,236.46927132178098 153.16279070079327,238.29473215248436 152.32558139786124,240.12019271217287 152.32558139786124,241.03292288444936 150.6511627919972,242.858383028768 149.81395348906517,243.7711129942909 148.1395348869264,244.68384289275855 146.46511627733707,245.59657272323966 144.79069767519832,246.5093024810776 143.11627907305956,246.5093024810776 141.4418604709208,247.4220321699977 138.93023255839944,247.4220321699977 137.2558139525354,247.4220321699977 134.7441860511899,247.4220321699977 133.06976744160056,247.4220321699977 130.55813953652978,247.4220321699977 128.88372093439102,246.5093024810776 126.37209302559495,245.59657272323966 123.86046512052417,244.68384289275855 122.18604651093483,243.7711129942909 120.51162790507078,242.858383028768 118.83720930293202,241.94565299153328 116.32558139786124,240.12019271217287 114.65116279572248,238.29473215248436 113.81395348906517,236.46927132178098 112.13953488692641,234.6438102107495 110.46511628106236,232.81834882311523 108.79069767519832,230.99288715980947 107.95348837226629,229.1674252199009 107.11627907305956,226.4292317898944 105.44186046719551,224.6037691598758 104.60465116426349,222.77830624952912 103.76744186133146,220.95284306351095 102.93023255839944,218.214647767134 102.09302325546741,216.38918388914317 102.09302325546741,214.56371973548084 101.25581395626068,211.82552298530936 101.25581395626068,210.0000581406057 100.41860465332866,208.1745930183679 100.41860465332866,206.3491276204586 100.41860465332866,203.61092900205404 99.58139535039663,201.78546291217208 99.58139535039663,199.95999654568732 98.74418604746461,198.13452989980578 97.90697674825788,196.3090629791841 97.06976744160056,194.4835957819596 96.23255813866854,193.57086208090186 94.55813953652978,191.74539446644485 93.72093023359776,189.91992657724768 92.88372093066573,188.0944584114477 91.20930232852697,186.2689899681136 90.37209302559495,185.35625564400107 89.53488371893764,183.53078678622842 88.6976744197309,181.7053176527843 87.86046511679888,179.8798482408747 87.02325581386685,178.05437855329365 86.18604651466012,177.141643605195 85.3488372117281,175.3161735041067 83.67441860586405,174.4034383483231 82.83720930293202,173.49070312269032 82.0,172.5779678300023 81.16279069706798,172.5779678300023 79.48837209492922,172.5779678300023 78.6511627919972,172.5779678300023 76.97674418613315,172.5779678300023 75.3023255802691,173.49070312269032 74.46511628106236,174.4034383483231 72.79069767519832,175.3161735041067 71.11627906933427,177.141643605195 70.27906977012753,178.05437855329365 68.60465116426349,179.8798482408747 67.76744185760617,180.7925829803571 66.09302325546741,182.61805225349963 64.41860465332866,183.53078678622842 63.58139535039663,185.35625564400107 61.906976744532585,186.2689899681136 61.06976744160056,187.1817242242396 59.3953488394618,188.0944584114477 57.720930233597755,189.00719252973795 56.88372093066573,190.83266055770218 55.209302328526974,191.74539446644485 54.37209302559495,192.65812830720097 52.69767441600561,193.57086208090186 51.86046511679888,194.4835957819596 50.18604651466012,195.39632941409945 49.348837208002806,196.3090629791841 48.51162790879607,198.13452989980578 47.67441860586405,199.04726325627416 46.837209302932024,199.95999654568732 46.0,201.78546291217208 46.0,202.69819599296898 46.0,204.52366194315255 46.0,205.4363948162645 46.0,207.26186035294086 46.837209302932024,208.1745930183679 46.837209302932024,210.0000581406057 47.67441860586405,210.91279059834778 48.51162790879607,211.82552298530936 49.348837208002806,212.73825530521572 51.02325581014156,214.56371973548084 51.86046511679888,215.4764518486336 52.69767441600561,216.38918388914317 53.534883722662926,217.30191586352885 54.37209302559495,218.214647767134 56.04651162773371,219.12737960088998 56.88372093066573,219.12737960088998 57.720930233597755,219.12737960088998 59.3953488394618,219.12737960088998 60.23255813866854,219.12737960088998 61.906976744532585,219.12737960088998 62.7441860511899,218.214647767134 64.41860465332866,217.30191586352885 65.25581395626068,216.38918388914317 66.09302325546741,215.4764518486336 67.76744185760617,214.56371973548084 68.60465116426349,213.65098755527288 69.44186046719551,211.82552298530936 70.27906977012753,210.91279059834778 70.27906977012753,209.08732561580837 71.11627906933427,208.1745930183679 71.95348837226629,207.26186035294086 72.79069767519832,206.3491276204586 72.79069767519832,204.52366194315255 73.62790697813034,203.61092900205404 74.46511628106236,202.69819599296898 75.3023255802691,201.78546291217208 76.13953488692641,200.8727297624573 76.97674418613315,199.04726325627416 77.81395349279046,198.13452989980578 78.6511627919972,197.22179647535086 79.48837209492922,196.3090629791841 80.32558139413595,195.39632941409945 81.16279069706798,195.39632941409945 82.0,194.4835957819596 83.67441860586405,194.4835957819596 84.51162790507078,193.57086208090186 85.3488372117281,193.57086208090186 87.02325581386685,193.57086208090186 87.86046511679888,194.4835957819596 89.53488371893764,194.4835957819596 90.37209302559495,195.39632941409945 91.20930232852697,195.39632941409945 92.88372093066573,196.3090629791841 93.72093023359776,196.3090629791841 95.3953488394618,196.3090629791841 96.23255813866854,196.3090629791841 97.90697674825788,196.3090629791841 98.74418604746461,196.3090629791841 100.41860465332866,196.3090629791841 101.25581395626068,195.39632941409945 102.93023255839944,195.39632941409945 103.76744186133146,194.4835957819596 105.44186046719551,193.57086208090186 106.27906977012753,193.57086208090186 107.95348837226629,193.57086208090186 108.79069767519832,193.57086208090186 110.46511628106236,193.57086208090186 111.3023255802691,193.57086208090186 112.97674418613315,194.4835957819596 114.65116279572248,194.4835957819596 115.48837209492922,195.39632941409945 117.16279069706798,196.3090629791841 118.83720930293202,197.22179647535086 119.67441860958934,198.13452989980578 121.3488372117281,199.04726325627416 123.02325581386685,199.04726325627416 123.86046512052417,199.95999654568732 125.53488372266293,200.8727297624573 126.37209302559495,201.78546291217208 128.0465116277337,202.69819599296898 128.88372093439102,203.61092900205404 130.55813953652978,203.61092900205404 131.3953488357365,204.52366194315255 133.06976744160056,205.4363948162645 133.90697674825788,206.3491276204586 134.7441860511899,207.26186035294086 136.41860465705395,208.1745930183679 137.2558139525354,209.08732561580837 138.0930232591927,210.0000581406057 139.76744186133146,210.91279059834778 140.6046511642635,212.73825530521572 141.4418604709208,213.65098755527288 142.27906976640224,214.56371973548084 142.27906976640224,215.4764518486336" stroke="#4dd2ff" stroke-linecap="round" stroke-linejoin="round" stroke-width="0.5"><title>2024-02-06 0.5km</title><desc>6661707214176000510</desc></polyline></svg>