<?xml version="1.0" encoding="utf-8" ?>
<svg baseProfile="full" height="300mm" version="1.1" viewBox="0,0,200,300" width="200mm" xmlns="http://www.w3.org/2000/svg" xmlns:ev="http://www.w3.org/2001/xml-events" xmlns:xlink="http://www.w3.org/1999/xlink"><defs /><rect fill="#222222" height="300" width="200" x="0" y="0" /><text fill="#FFFFFF" style="font-size:12px; font-family:Arial; font-weight:bold;" x="10" y="20">Over 10km Runs</text><text fill="#FFFFFF" style="font-size:4px; font-family:Arial" x="10" y="280">ATHLETE</text><text fill="#FFFFFF" style="font-size:9px; font-family:Arial" x="10" y="290">pi-dal</text><text fill="#FFFFFF" style="font-size:4px; font-family:Arial" x="120" y="280">STATISTICS</text><text fill="#FFFFFF" style="font-size:3px; font-family:Arial" x="120" y="285">Number: 1</text><text fill="#FFFFFF" style="font-size:3px; font-family:Arial" x="120" y="290">Weekly: 1.0</text><text fill="#FFFFFF" style="font-size:3px; font-family:Arial" x="141" y="285">Total: 0.5 km</text><text fill="#FFFFFF" style="font-size:3px; font-family:Arial" x="141" y="290">Avg: 0.5 km</text><text fill="#FFFFFF" style="font-size:3px; font-family:Arial" x="167" y="285">Min: 0.5 km</text><text fill="#FFFFFF" style="font-size:3px; font-family:Arial" x="167" y="290">Max: 0.5 km</text><polyline fill="none" points="134.53488372266293,152.73828447796404 137.0465116277337,152.73828447796404 138.3023255839944,152.73828447796404 139.55813954025507,152.73828447796404 142.06976744532585,152.73828447796404 143.32558140158653,152.73828447796404 145.83720930665731,152.73828447796404 148.3488372117281,152.73828447796404 149.60465116798878,152.73828447796404 152.11627907305956,152.73828447796404 154.62790698558092,152.73828447796404 157.1395348906517,152.73828447796404 159.65116279572248,151.36918589565903 162.16279070824385,151.36918589565903 164.67441861331463,151.36918589565903 167.1860465183854,151.36918589565903 168.4418604746461,152.73828447796404 170.95348837971687,152.73828447796404 174.72093024104834,151.36918589565903 175.97674418985844,154.10738295782357 177.23255814611912,158.21467777248472 178.48837209492922,160.95287379343063 179.74418605864048,163.6910694008693 181.0,170.53655660618097 181.0,173.27475076168776 181.0,174.64384768437594 181.0,177.38204121682793 181.0,180.12023433391005 181.0,182.85842703748494 181.0,184.22752323374152 181.0,186.96571531426162 181.0,189.70390698127449 179.74418605864048,192.44209822826087 178.48837209492922,195.18028906732798 178.48837209492922,196.54938432667404 175.97674418985844,199.28757454175502 174.72093024104834,200.65666949003935 172.20930233597755,202.02576433774084 169.6976744160056,203.39485908299685 167.1860465183854,204.76395372115076 164.67441861331463,204.76395372115076 162.16279070824385,206.13304825499654 158.3953488394618,206.13304825499654 155.88372093439102,206.13304825499654 152.11627907305956,206.13304825499654 149.60465116798878,206.13304825499654 145.83720930665731,206.13304825499654 143.32558140158653,204.76395372115076 139.55813954025507,203.39485908299685 135.7906976789236,202.02576433774084 133.27906977385283,200.65666949003935 130.76744186133146,199.28757454175502 128.25581395626068,197.9184794863686 124.48837209492922,195.18028906732798 121.97674418985844,192.44209822826087 120.72093023359776,189.70390698127449 118.20930232852697,186.96571531426162 115.69767442345619,184.22752323374152 113.18604651093483,181.4893307397142 111.93023256212473,178.75113782845438 110.67441860586405,174.64384768437594 108.16279070079327,171.90565373841673 106.90697675198317,169.16745937336236 105.65116279572248,166.42926459386945 104.3953488394618,162.32197165023535 103.1395348906517,159.58377583231777 103.1395348906517,156.8455796027556 101.88372093439102,152.73828447796404 101.88372093439102,150.0000872099772 100.62790698558092,147.2618895266205 100.62790698558092,144.52369142975658 100.62790698558092,140.4163935026154 99.37209302932024,137.6781943673268 99.37209302932024,134.93999481666833 98.11627907305956,132.20179484970868 96.86046512424946,129.46359446737915 95.60465116798878,126.7253936715424 94.3488372117281,125.35629312042147 91.83720930665731,122.61809169966727 90.58139535039663,119.87988986447453 89.32558140158653,117.1416876167059 86.81395349651575,114.40348495077342 85.55813954025507,113.03438346460462 84.30232558399439,110.2961801784113 83.04651162773371,107.55797647871077 81.7906976789236,104.81977235991508 80.53488372266293,102.08156782854348 79.27906977385283,100.71246540732682 78.02325581759214,97.97426025476307 75.51162791252136,96.60515752062201 74.25581395626068,95.23605468310416 73.00000000745058,93.86695174500346 71.74418604373932,93.86695174500346 69.23255814611912,93.86695174500346 67.97674418985844,93.86695174500346 65.46511628478765,93.86695174500346 62.95348837226629,95.23605468310416 61.69767442345619,96.60515752062201 59.18604651093483,97.97426025476307 56.67441860586405,100.71246540732682 55.41860465705395,102.08156782854348 52.906976744532585,104.81977235991508 51.651162788271904,106.18887447007 49.13953488320112,108.92707837931812 46.62790697813034,110.2961801784113 45.37209302186966,113.03438346460462 42.86046512424946,114.40348495077342 41.6046511605382,115.77258633449674 39.093023262917995,117.1416876167059 36.58139535039663,118.5107887936756 35.32558140158653,121.24899083562195 32.81395349651575,122.61809169966727 31.55813954025507,123.98719246033579 29.046511627733707,125.35629312042147 27.790697678923607,126.7253936715424 25.279069773852825,128.09449412021786 24.023255817592144,129.46359446737915 22.767441861331463,132.20179484970868 21.511627912521362,133.57089488394558 20.25581395626068,134.93999481666833 19.0,137.6781943673268 19.0,139.0472939889878 19.0,141.7854929137975 19.0,143.15459222346544 19.0,145.8927905280143 20.25581395626068,147.2618895266205 20.25581395626068,150.0000872099772 21.511627912521362,151.36918589565903 22.767441861331463,152.73828447796404 24.023255817592144,154.10738295782357 26.534883722662926,156.8455796027556 27.790697678923607,158.21467777248472 29.046511627733707,159.58377583231777 30.30232558399439,160.95287379343063 31.55813954025507,162.32197165023535 34.06976744532585,163.6910694008693 35.32558140158653,163.6910694008693 36.58139535039663,163.6910694008693 39.093023262917995,163.6910694008693 40.348837211728096,163.6910694008693 42.86046512424946,163.6910694008693 44.11627908051014,162.32197165023535 46.62790697813034,160.95287379343063 47.88372093439102,159.58377583231777 49.13953488320112,158.21467777248472 51.651162788271904,156.8455796027556 52.906976744532585,155.47648133244365 54.162790700793266,152.73828447796404 55.41860465705395,151.36918589565903 55.41860465705395,148.63098842278123 56.67441860586405,147.2618895266205 57.93023256212473,145.8927905280143 59.18604651093483,144.52369142975658 59.18604651093483,141.7854929137975 60.44186046719551,140.4163935026154 61.69767442345619,139.0472939889878 62.95348837226629,137.6781943673268 64.20930232852697,136.30909464228898 65.46511628478765,133.57089488394558 66.72093024104834,132.20179484970868 67.97674418985844,130.83269471209496 69.23255814611912,129.46359446737915 70.48837209492922,128.09449412021786 71.74418604373932,128.09449412021786 73.00000000745058,126.7253936715424 75.51162791252136,126.7253936715424 76.76744186133146,125.35629312042147 78.02325581759214,125.35629312042147 80.53488372266293,125.35629312042147 81.7906976789236,126.7253936715424 84.30232558399439,126.7253936715424 85.55813954025507,128.09449412021786 86.81395349651575,128.09449412021786 89.32558140158653,129.46359446737915 90.58139535039663,129.46359446737915 93.093023262918,129.46359446737915 94.3488372117281,129.46359446737915 96.86046512424946,129.46359446737915 98.11627907305956,129.46359446737915 100.62790698558092,129.46359446737915 101.88372093439102,128.09449412021786 104.3953488394618,128.09449412021786 105.65116279572248,126.7253936715424 108.16279070079327,125.35629312042147 109.41860465705395,125.35629312042147 111.93023256212473,125.35629312042147 113.18604651093483,125.35629312042147 115.69767442345619,125.35629312042147 116.95348837226629,125.35629312042147 119.46511627733707,126.7253936715424 121.97674418985844,126.7253936715424 123.23255814611912,128.09449412021786 125.7441860511899,129.46359446737915 128.25581395626068,130.83269471209496 129.51162791252136,132.20179484970868 132.02325581759214,133.57089488394558 134.53488372266293,133.57089488394558 135.7906976789236,134.93999481666833 138.3023255839944,136.30909464228898 139.55813954025507,137.6781943673268 142.06976744532585,139.0472939889878 143.32558140158653,140.4163935026154 145.83720930665731,140.4163935026154 147.09302325546741,141.7854929137975 149.60465116798878,143.15459222346544 150.86046512424946,144.52369142975658 152.11627907305956,145.8927905280143 154.62790698558092,147.2618895266205 155.88372093439102,148.63098842278123 157.1395348906517,150.0000872099772 159.65116279572248,151.36918589565903 160.90697675198317,154.10738295782357 162.16279070824385,155.47648133244365 163.41860465705395,156.8455796027556 163.41860465705395,158.21467777248472" stroke="#4DD2FF" stroke-linecap="round" stroke-linejoin="round" stroke-width="0.5"><title>2024-02-06 0.5km</title><desc>6661707214176000510</desc></polyline></svg>